<?xml version="1.0" encoding="utf-8"?>
<!-- Generator: Adobe Illustrator 24.3.0, SVG Export Plug-In . SVG Version: 6.00 Build 0)  -->
<svg version="1.1" id="Layer_1" xmlns="http://www.w3.org/2000/svg" xmlns:xlink="http://www.w3.org/1999/xlink" x="0px" y="0px"
	 viewBox="0 0 50 50" style="enable-background:new 0 0 50 50;" xml:space="preserve">
<style type="text/css">
	.st0{fill:#FFFFFF;}
</style>
<rect x="-3" y="-1" width="53" height="51"/>
<path class="st0" d="M10.4,6.9c-1.1,0-1.7,0.4-1.7,0.4s-1.1,1-2.2,1.5c-0.3,1.1-0.3,2.9-0.3,2.9s1.3,0.6,0.6,2.5
	c-0.2,0.9-0.1,0.3-0.3,1.3c0.4,1.4,0.7,0,0.8,2.5c0.2,1,0.5,0.2,0.7,1.2c-0.1,1.2-0.8,2.9,0.3,4.3c0.5,0.4,0.4,0.6,0.9,1.3
	c0,5.7,2.1,7.7,2.1,7.7s0.1,1.3,1.5,1.8c2,4.9,2.5,4,2.9,4.5c0.2,0.9,1.2,3.3,2.6,3.7c0.4,2,4.6,4,4.6,4s1.1,0.8,1.6-0.2
	c1.2,0.1,2.6-1.9,2.6-1.9s1.7-1,2.1-2.5c2-1.4,2.6-2.3,2.8-3.3c1.9-1.1,1.3-2.4,1.3-2.4s0.3-0.3,0.8-2.4c1.7-1.4,3.6-3.7,3.6-5.8
	c1.5-1.5,1.3-3,1.3-3l0.3-1.2c0,0-0.4-2.9,0.7-3.6c0.8-1.1,0.4-2.6,0.4-2.6s0.9-2.1,0.3-3.7c0.8-1.8,0.2-3.9,0.2-3.9
	s-0.1-1.9-3.4-1.3c-1.6-0.1-2.7-0.3-2.7-0.3S34,8.2,32.7,7.9C32.2,7.1,32.8,6,32.8,6s2.3-0.4,0.2-1.6c-0.9-1.5-1.4-1.6-1.4-1.6
	S29.3,3,27,1.3c-1.5,1-2.7,0.4-2.7,0.4s-2.4-0.4-4.5,0.6c-2.2-0.1-4.6,1.3-4.6,1.3l-1.5,0.5c0,0,0,0.2,0.3,1.9c0.4,2.1,0,2.1,0,2.1
	S12.4,8.7,10.4,6.9z"/>
<image style="display:none;overflow:visible;enable-background:new    ;" width="512" height="512" xlink:href="../../../../../Downloads/Animal_D-512.png"  transform="matrix(5.340370e-02 0 0 5.340370e-02 9.8287 5.9821)">
</image>
<image style="display:none;overflow:visible;enable-background:new    ;" width="512" height="512" xlink:href="../../../../../Downloads/bear_teddy_animal_toy_panda-512.png"  transform="matrix(5.673083e-02 0 0 5.673083e-02 10.483 6.3121)">
</image>
<g>
	<path d="M12.9,30.6c0-4.9,4.9-7.9,10.7-7.9c8.6,0,12.3,2.3,12.3,5.5c0,2.4-1.5,4.7-4,4.7s-6.7-1.5-9.5,0c-2.8,1.5-2.3,3.5-5.4,3.5
		S12.9,32.3,12.9,30.6z"/>
	<ellipse cx="16.3" cy="19.8" rx="2.6" ry="3"/>
	<ellipse cx="21.3" cy="18.9" rx="2" ry="2.5"/>
	<ellipse cx="25.6" cy="19.1" rx="1.7" ry="2.3"/>
	<ellipse cx="29.7" cy="19.7" rx="1.6" ry="2"/>
	<ellipse cx="33.3" cy="20.5" rx="1.5" ry="1.8"/>
	<path d="M14.7,13.7c1,0,1.5,0,1.5,0c-0.4-1,0-3.8,0-3.8S14.7,11.8,14.7,13.7z"/>
	<path d="M20.3,11.8c1,0,1.5,0,1.5,0c-0.4-1-0.5-4.1-0.5-4.1S20.3,9.9,20.3,11.8z"/>
	<path d="M26.8,12.6c-1,0-1.2,0-1.2,0c0.4-1,0.3-4.1,0.3-4.1S26.9,9.7,26.8,12.6z"/>
	<path d="M30.9,14.4c-1,0-1.2,0-1.2,0c0.4-1,0.3-4.1,0.3-4.1S31,11.5,30.9,14.4z"/>
	<path d="M34.6,17.8c-1,0-1.2,0-1.2,0c0.4-1,0.2-3.5,0.2-3.5S34.7,14.9,34.6,17.8z"/>
</g>
</svg>
