<?xml version="1.0" encoding="utf-8"?>
<!-- Generator: Adobe Illustrator 24.3.0, SVG Export Plug-In . SVG Version: 6.00 Build 0)  -->
<svg version="1.1" id="Layer_1" xmlns="http://www.w3.org/2000/svg" xmlns:xlink="http://www.w3.org/1999/xlink" x="0px" y="0px"
	 viewBox="0 0 50 50" style="enable-background:new 0 0 50 50;" xml:space="preserve">
<style type="text/css">
	.st0{display:none;}
	.st1{fill:none;stroke:#FFFFFF;stroke-width:4;stroke-miterlimit:10;}
	.st2{fill:none;stroke:#FFFFFF;stroke-width:3;stroke-miterlimit:10;}
</style>
<rect x="-3.9" y="-4.2" class="st0" width="56.7" height="59.6"/>
<path class="st1" d="M41.8,47.5H8.5c-3.3,0-6-2.7-6-6V8.2c0-3.3,2.7-6,6-6h33.2c3.3,0,6,2.7,6,6v33.2C47.8,44.8,45.1,47.5,41.8,47.5
	z"/>
<path class="st1" d="M40.6,18.4"/>
<path class="st1" d="M40.6,27.1"/>
<line class="st2" x1="10.4" y1="11.3" x2="22.5" y2="11.3"/>
<line class="st2" x1="10.4" y1="17.7" x2="40.6" y2="17.7"/>
<line class="st2" x1="10.4" y1="24.3" x2="22.5" y2="24.3"/>
<line class="st2" x1="28.4" y1="24.3" x2="40.5" y2="24.3"/>
<line class="st2" x1="10.4" y1="38.3" x2="40.5" y2="38.3"/>
<line class="st2" x1="10.4" y1="31.3" x2="22.5" y2="31.3"/>
</svg>
