<svg xmlns="http://www.w3.org/2000/svg" viewBox="0 0 48.78 48.85"><path d="M47.1,1.2h-31A2.17,2.17,0,0,0,14,3.37V28.7l2.89-2.89V4.09H46.38V33.64H24.11l-2.89,2.89H47.1a2.17,2.17,0,0,0,2.17-2.17v-31A2.17,2.17,0,0,0,47.1,1.2Z" transform="translate(-0.49 -1.2)"/><polyline points="17.41 38.63 8.13 40.95 10.44 31.66"/><rect x="10.7" y="30.02" width="17" height="2.63" transform="translate(-17.02 21.55) rotate(-45)"/><path d="M8.54,47.17H3.38V42H.49v5.93a2.17,2.17,0,0,0,2.17,2.16H8.54Z" transform="translate(-0.49 -1.2)"/><path d="M21.73,42v5.21H16.57v2.88h5.88a2.17,2.17,0,0,0,2.17-2.16V42Z" transform="translate(-0.49 -1.2)"/><path d="M8.54,25.93H2.66A2.17,2.17,0,0,0,.49,28.09V34H3.38v-5.2H8.54Z" transform="translate(-0.49 -1.2)"/></svg>